<svg width="24" height="24" viewBox="0 0 24 24" fill="none" xmlns="http://www.w3.org/2000/svg">
<rect width="24" height="24" rx="12" fill="white"/>
<path d="M13.0001 9.5625C12.8322 9.5625 12.0273 8 10.0444 8C8.00024 8 6.16859 10.1875 7.38217 13C8.30126 15.13 12.0474 18 13.0001 18C13.9529 18 17.7225 15.1114 18.624 13C19.8248 10.1875 18.0001 8 16.0001 8C14.0001 8 13.1681 9.5625 13.0001 9.5625Z" fill="#FFC02B"/>
<path d="M12.007 8.5625C11.839 8.5625 11.0341 7 9.05127 7C7.00708 7 5.17542 9.1875 6.389 12C7.3081 14.13 11.0542 17 12.007 17C12.9597 17 16.7294 14.1114 17.6308 12C18.8316 9.1875 17.007 7 15.007 7C13.007 7 12.175 8.5625 12.007 8.5625Z" stroke="black" stroke-width="0.8"/>
</svg>
