<svg width="59" height="18" viewBox="0 0 59 18" fill="none" xmlns="http://www.w3.org/2000/svg">
<g clip-path="url(#clip0)">
<path d="M55.1886 0H57.8029C58.4622 0 59.0001 0.631176 59.0001 1.26809C59.0001 1.905 58.4622 2.53618 57.8029 2.53618H56.4668V7.80363C56.4668 8.48645 55.6802 9.04877 54.9746 9.04877C54.269 9.04877 53.4824 8.49219 53.4824 7.80363V1.24514C53.4824 1.05579 53.5287 0.877909 53.6097 0.717246C53.8352 0.286898 54.217 0 54.7144 0H55.1886Z" fill="#727171"/>
<path d="M43.3664 17.7936H55.9749C56.5938 17.7936 57.097 17.4034 57.097 16.8296C57.097 16.2558 56.5938 15.9058 55.9749 15.9058H44.6504V14.9763H55.4544C56.0732 14.9763 56.5764 14.5861 56.5764 14.0123C56.5764 13.4385 56.0732 13.0483 55.4544 13.0483H44.6504V12.136H55.9807C56.5996 12.136 57.1028 11.7458 57.1028 11.172C57.1028 10.5982 56.5996 10.208 55.9807 10.208H43.4647H42.8285C42.6203 10.208 42.4294 10.2711 42.2732 10.3801C41.9089 10.5925 41.6602 10.9654 41.6602 11.3958V16.6173C41.6602 17.0305 41.8915 17.3977 42.2385 17.61C42.4005 17.7305 42.6607 17.8108 42.8285 17.8108H43.3664V17.7936Z" fill="#727171"/>
<path d="M49.9708 8.6299C50.5955 8.6299 51.249 8.0102 51.249 7.39624V1.45171C51.249 0.654128 50.5781 0 49.7568 0C48.9355 0 48.2646 0.654128 48.2646 1.45171V2.50749H43.8516V1.45171C43.8516 0.654128 43.1807 0 42.3594 0C41.5381 0 40.8672 0.654128 40.8672 1.45171V7.39624C40.8672 8.0102 41.5497 8.6299 42.1454 8.6299H42.6659H49.4503H49.9708ZM48.2646 4.63628V6.08798H43.8516V4.63628H48.2646Z" fill="#727171"/>
<path d="M36.3438 0.115002C36.3438 0.115002 36.0777 0.0231947 35.7538 0.0231947L33.7469 0.0117188H22.2198C21.5142 0.0117188 20.959 0.694537 20.959 1.37735C20.959 2.06017 21.5142 2.74299 22.2198 2.74299H33.8047L32.7636 6.27184C32.567 6.93171 33.1396 7.74076 33.8567 7.90142C34.7243 8.09651 35.3663 7.72928 35.5629 7.06942L37.1303 1.6413C37.3328 0.975697 36.9742 0.292879 36.3438 0.115002Z" fill="#727171"/>
<path d="M36.7202 8.86523H21.4453C20.7859 8.86523 20.248 9.57674 20.248 10.2137C20.248 10.8506 20.7859 11.5621 21.4453 11.5621H27.4546V16.491C27.4546 17.323 28.3164 18.0001 29.1724 18.0001C30.0284 18.0001 30.8901 17.323 30.8901 16.491V11.5621H36.7144C37.3737 11.5621 37.9116 10.8506 37.9116 10.2137C37.9174 9.571 37.3795 8.86523 36.7202 8.86523Z" fill="#727171"/>
<path d="M14.3495 7.99262H16.4663C17.1257 7.99262 17.6636 8.62379 17.6636 9.26071C17.6636 9.89762 17.1257 10.5288 16.4663 10.5288H1.19724C0.537889 10.5288 0 9.89762 0 9.26071C0 8.62379 0.537889 7.99262 1.19724 7.99262H10.9718L10.9833 6.53517H3.08274C3.08274 6.53517 1.8508 6.56386 1.26086 5.9958C0.676698 5.43348 0.699833 4.49246 0.699833 4.49246V1.93906C0.699833 1.93906 0.659347 1.13575 1.26086 0.53326C1.83345 -0.0405366 3.08274 -0.0003708 3.08274 -0.0003708H4.70797H15.7607C16.4201 -0.0003708 16.9579 0.630806 16.9579 1.26772C16.9579 1.90463 16.4201 2.53581 15.7607 2.53581H4.32624V3.99325H13.1754C13.8347 3.99325 14.3726 4.51541 14.3726 5.15806L14.3495 7.99262Z" fill="#727171"/>
<path d="M13.7307 11.6592H8.91282H8.90125H3.91566C2.17475 11.6592 0.751953 13.042 0.751953 14.729C0.751953 16.416 2.17475 17.7988 3.91566 17.7988H8.90125H8.91282H13.7307C15.4716 17.7988 16.8944 16.416 16.8944 14.729C16.8944 13.0363 15.4716 11.6592 13.7307 11.6592ZM12.4467 15.429H8.9186H8.90704H5.20544C4.78323 15.429 4.4362 15.0962 4.4362 14.6831C4.4362 14.2757 4.78323 13.9372 5.20544 13.9372H8.90125H8.91282H12.4409C12.8631 13.9372 13.2101 14.27 13.2101 14.6831C13.2159 15.0962 12.8689 15.429 12.4467 15.429Z" fill="#727171"/>
</g>
<defs>
<clipPath id="clip0">
<rect width="59" height="18" fill="white"/>
</clipPath>
</defs>
</svg>
