<svg width="256" height="83" viewBox="0 0 256 83" fill="none" xmlns="http://www.w3.org/2000/svg">
<path d="M45.9307 35.4775C45.9307 35.4775 41.3486 41.9372 50.5128 45.5295C50.5128 45.5295 54.0535 38.224 45.9307 35.4775Z" fill="#F5A216"/>
<path d="M59.3269 37.1797C59.3269 37.1797 51.0617 37.4763 53.2979 46.5396C53.2979 46.5396 61.6947 44.9576 59.3269 37.1797Z" fill="#F5A216"/>
<path d="M47.4436 22.0732C47.4436 22.0732 40.7678 26.6543 48.0356 32.9821C48.0356 32.9931 54.0537 27.2805 47.4436 22.0732Z" fill="#F5A216"/>
<path d="M70.8104 37.4087C70.8104 37.4087 62.9946 34.8599 61.5586 44.066C61.5696 44.066 69.9993 45.4612 70.8104 37.4087Z" fill="#F5A216"/>
<path d="M49.4016 46.8356C49.4016 46.8356 41.1583 46.1105 42.112 55.3715C42.112 55.3715 50.6623 54.8332 49.4016 46.8356Z" fill="#F5A216"/>
<path d="M43.3208 45.7387C43.3208 45.7387 36.1517 41.8717 32.918 50.6713C32.918 50.6713 40.9311 53.5057 43.3208 45.7387Z" fill="#F5A216"/>
<path d="M66.1232 51.4509C66.1232 51.4509 63.876 43.9916 55.0078 48.1552C55.0078 48.1552 58.6143 55.4388 66.1232 51.4509Z" fill="#F5A216"/>
<path d="M74.6917 49.1978C74.6917 49.1978 72.6857 42.5184 64.7383 46.2426C64.7273 46.2536 67.9611 52.7682 74.6917 49.1978Z" fill="#F5A216"/>
<path d="M60.7262 18.0083C60.7262 18.0083 52.4719 17.5249 53.7325 26.7529C53.7325 26.7529 62.2609 25.973 60.7262 18.0083Z" fill="#F5A216"/>
<path d="M34.7098 36.0476C34.7098 36.0476 33.5479 43.7267 43.4684 43.2653C43.4684 43.2653 43.293 35.2456 34.7098 36.0476Z" fill="#F5A216"/>
<path d="M27 39.2231C27 39.2231 27.3069 45.7706 35.4736 43.9469C35.4736 43.9469 34.0047 37.3005 27 39.2231Z" fill="#F5A216"/>
<path d="M58.5515 28.5118C58.5515 28.5118 50.3301 27.6439 51.0974 36.9159C51.1084 36.9159 59.6587 36.5424 58.5515 28.5118Z" fill="#F5A216"/>
<path d="M67.6599 28.7094C67.6599 28.7094 59.4055 28.1272 60.5456 37.3772C60.5456 37.3772 69.074 36.6851 67.6599 28.7094Z" fill="#F5A216"/>
<path d="M38.3991 26.6543C38.3991 26.6543 34.0582 33.2568 43.3539 36.5525C43.3539 36.5525 46.6205 29.1261 38.3991 26.6543Z" fill="#F5A216"/>
<path d="M51.7877 49.1768L50.3516 64.7447L54.7914 64.7557L53.8815 52.0662L51.7877 49.1768Z" fill="#F5A216"/>
<path d="M99.7695 29.2808L99.7805 26.1167L95.4831 25.4795L95.4283 25.6113L95.0117 26.4683L95.7901 26.7539L96.1518 26.9517C96.7 27.2593 96.8644 27.512 97.0179 27.7867C97.2481 28.1932 97.292 28.4898 97.3687 29.2918V50.1992H99.2214L99.7695 46.9142C99.7695 46.9142 99.7695 35.3015 99.7695 34.9389H104.034V32.9174H99.7695V29.2808Z" fill="black"/>
<path d="M85.019 33.6972C85.019 32.8403 85.3369 31.9725 85.9617 31.1485C86.5865 30.3246 87.4306 29.9291 88.5597 29.9291C89.6888 29.9291 90.5438 30.3246 91.1686 31.1485C91.8044 31.9835 92.1223 32.8403 92.1223 33.6972C92.1113 34.5651 91.7825 35.422 91.1576 36.2569C90.5438 37.0918 89.6888 37.4983 88.5597 37.4983C87.4416 37.4983 86.5865 37.0918 85.9617 36.2569C85.3259 35.433 85.019 34.5651 85.019 33.6972ZM88.5487 28.0176C86.9044 28.0176 85.4684 28.5779 84.2736 29.6654C83.0787 30.764 82.4648 32.1482 82.4648 33.7741C82.4648 35.422 83.0787 36.7952 84.2736 37.8828C85.4684 38.9594 86.9044 39.5087 88.5487 39.5087C90.193 39.5087 91.629 38.9594 92.8129 37.8609C93.9968 36.7733 94.5997 35.389 94.5997 33.7741C94.5778 32.1263 93.9749 30.7421 92.791 29.6545C91.629 28.5779 90.193 28.0176 88.5487 28.0176Z" fill="black"/>
<path d="M110.812 31.9727C111.009 32.1155 111.042 32.456 111.042 32.7197V35.2135C111.042 35.4881 111.108 35.6968 111.251 35.8397C111.393 35.9825 111.579 36.0484 111.821 36.0484H123.517V34.2028H113.673V32.478H123.078V28.7099L123.067 27.084H122.881H110.582V28.9076H120.448V30.6873H110.297V31.72L110.45 31.7529C110.461 31.7529 110.549 31.7749 110.812 31.9727Z" fill="black"/>
<path d="M106.152 38.0146V39.9263H127.519V38.0146H127.321H106.152Z" fill="black"/>
<path d="M113.792 43.9479H120.413V48.2763H113.792V43.9479ZM122.759 42.0693H110.492V43.0581L110.646 43.091C110.657 43.091 110.755 43.124 111.007 43.3217C111.161 43.4426 111.238 43.6842 111.238 44.0248V49.298C111.238 49.5836 111.336 49.8143 111.523 49.9681C111.709 50.1109 111.884 50.1878 112.049 50.1878H122.079C122.32 50.1878 122.528 50.1109 122.693 49.9571C122.857 49.8033 122.945 49.5726 122.945 49.298V43.893V42.0693H122.759V42.0693Z" fill="black"/>
<path d="M147.262 29.2808L147.273 26.1167L142.975 25.4795L142.92 25.6113L142.504 26.4793L143.282 26.7649L143.644 26.9627C144.181 27.2703 144.357 27.523 144.521 27.7977C144.74 28.1932 144.784 28.4459 144.861 29.3028V50.1992H146.714L147.262 46.9142C147.262 46.9142 147.262 35.3015 147.262 34.9389H151.526V32.9174H147.262V29.2808Z" fill="black"/>
<path d="M140.779 37.5419L138.96 37.7727C137.217 37.9704 135.66 38.0693 134.311 38.0693H132.766V30.3018H140.615V28.2803H140.418H129.312V29.3679L129.477 29.3899C129.51 29.4009 129.608 29.4229 129.926 29.6096C130.113 29.7195 130.211 30.0271 130.211 30.4886V39.5964C130.211 39.8711 130.277 40.1018 130.409 40.2666C130.551 40.4424 130.792 40.5303 131.154 40.5303C133.424 40.5303 135.704 40.3655 137.918 40.0469C140.089 39.7392 140.768 39.6074 142.731 39.113L142.873 39.0801V37.1684L140.911 37.52L140.779 37.5419Z" fill="black"/>
<path d="M152.906 37.7969V39.6756H162.751V44.9821H164.954L165.404 42.9715V39.6756H175.106V37.7969H174.919H152.906Z" fill="black"/>
<path d="M166.4 33.8185C165.764 34.4447 165.008 34.7633 164.131 34.7633C163.243 34.7633 162.498 34.4557 161.862 33.8185C161.226 33.1813 160.908 32.4453 160.908 31.5664C160.908 30.6875 161.226 29.9515 161.862 29.3143C162.509 28.6771 163.243 28.3586 164.131 28.3586C165.008 28.3586 165.775 28.6771 166.4 29.3143C167.047 29.9515 167.354 30.6875 167.354 31.5664C167.354 32.4453 167.036 33.1813 166.4 33.8185ZM160.207 35.2466C161.423 36.1475 162.75 36.6089 164.131 36.6089C165.534 36.6089 166.871 36.1475 168.088 35.2466C169.327 34.3348 169.963 33.1044 169.963 31.6103C169.963 30.1163 169.338 28.8749 168.088 27.9191C166.849 26.9743 165.523 26.502 164.12 26.502C162.717 26.502 161.401 26.9743 160.185 27.9191C158.957 28.8749 158.332 30.1163 158.332 31.6103C158.343 33.1044 158.968 34.3348 160.207 35.2466Z" fill="black"/>
<path d="M160.265 44.8052L160.276 42.8496L157.042 42.5859L156.987 42.7068L156.57 43.5857L156.79 43.6406C156.844 43.6626 156.998 43.7176 157.338 43.9483C157.557 44.1021 157.667 44.4317 157.667 44.9261V49.4965C157.667 49.7931 157.754 50.0019 157.93 50.1337C158.083 50.2436 158.259 50.3095 158.445 50.3095H170.8V48.3209H160.254V44.8052H160.265Z" fill="black"/>
<path d="M186.933 32.7413C187.471 31.6756 187.854 30.5661 188.074 29.4455C188.095 29.4016 188.095 29.3467 188.095 29.2917C188.095 29.2038 188.074 29.105 188.008 29.0281C187.887 28.8523 187.745 28.8193 187.657 28.8193H178.778H178.581V30.8078H184.719C184.204 32.7742 183.206 34.6089 181.727 36.2457C180.181 37.9595 178.493 39.3547 176.706 40.3874L176.465 40.5302L177.912 41.6947L178.021 41.6398C179.085 41.0685 180.148 40.3654 181.2 39.5525C182.198 38.7944 183.119 37.9375 183.963 37.0147C184.215 37.3114 187.81 41.453 187.81 41.453L189.751 39.5305C189.751 39.5305 185.344 35.8393 185.081 35.6195C185.815 34.7077 186.429 33.741 186.933 32.7413Z" fill="black"/>
<path d="M193.855 25.3799L193.789 25.4788L193.285 26.2368L194.052 26.5445L194.622 26.918C194.852 27.1377 194.951 27.2915 195.137 27.6651C195.313 28.0276 195.401 28.511 195.401 29.1263V33.7626H192.791V29.9393L192.78 26.885L188.9 26.2478L188.352 27.1267L188.965 27.3355L189.349 27.5223L189.645 27.731C189.93 27.9727 190.062 28.1705 190.215 28.544C190.358 28.8956 190.445 29.379 190.445 29.9942V49.4734H192.364L192.791 46.3971C192.791 46.3971 192.791 36.2126 192.791 35.8391H195.401V50.2754H197.286L197.779 47.2871V29.1043L197.769 25.8853L193.855 25.3799Z" fill="black"/>
<path d="M218.749 32.9174V29.2808V26.1167L214.463 25.4795L214.397 25.6113L213.98 26.4683L214.616 26.732L215.132 26.9737C215.658 27.2703 215.833 27.523 215.998 27.7977C216.217 28.1932 216.261 28.4459 216.337 29.3028V44.8488H218.19L218.738 41.5638C218.738 41.5638 218.738 35.3015 218.738 34.9389H223.003V32.9174H218.749V32.9174Z" fill="black"/>
<path d="M214.185 38.156L215.325 37.8704V37.7276V35.9918L214.327 36.2115C213.363 36.4203 212.924 36.5191 211.521 36.6839C209.822 36.8817 208.298 36.9805 206.972 36.9805H205.47V30.477H213.132V28.4775H212.935H202.094V29.5432L202.247 29.5761C202.269 29.5871 202.379 29.6091 202.686 29.7958C202.905 29.9277 202.96 30.3341 202.96 30.6527V38.4746C202.96 38.7493 203.026 38.969 203.157 39.1338C203.289 39.3095 203.53 39.3864 203.881 39.3864C206.106 39.3864 208.331 39.2326 210.491 38.914C212.223 38.6614 213.001 38.4526 214.185 38.156Z" fill="black"/>
<path d="M210.208 44.4742C210.208 44.1116 210.241 43.76 210.296 43.4195L210.406 42.8372L210.461 42.5295L210.252 42.5076L207.029 42.2549L206.974 42.3647L206.547 43.2217L206.777 43.2876C206.854 43.3096 207.018 43.3755 207.347 43.5952C207.566 43.7381 207.687 44.0677 207.687 44.573V49.506C207.687 49.8026 207.775 50.0114 207.95 50.1432C208.104 50.2531 208.279 50.319 208.465 50.319H220.678V48.3304H210.219V44.4742H210.208Z" fill="black"/>
<path d="M86.4659 64.6461H85.4465V63.4706L85.4574 56.7143C85.4574 56.6594 85.4355 56.6045 85.3917 56.5715C85.3478 56.5385 85.293 56.5166 85.2382 56.5166H83.8899C83.6049 56.5166 83.3966 56.5825 83.2541 56.7253C83.1116 56.8571 82.9801 57.0549 82.8704 57.3075H82.4648L82.5635 55.7695H89.3928L89.4805 57.3075H89.0858C88.9653 57.0549 88.8447 56.8571 88.7022 56.7253C88.5597 56.5935 88.3404 56.5166 88.0664 56.5166H86.7071C86.6523 56.5166 86.6084 56.5385 86.5536 56.5715C86.4988 56.6154 86.4769 56.6594 86.4769 56.7143V63.4706V64.6461H86.4659Z" fill="#78777A"/>
<path d="M95.9693 64.6461H94.9828L94.9937 63.6573V61.4052C94.9937 60.9658 94.906 60.5813 94.7416 60.2298C94.5772 59.8892 94.2264 59.6915 93.7112 59.6585C93.3166 59.6255 92.9219 59.7793 92.5054 60.1199C92.0998 60.4605 91.8915 60.8779 91.8915 61.3723V63.6463V64.6351H90.9269V63.6463V56.9011C90.9269 56.7033 90.883 56.5495 90.8063 56.4506C90.7295 56.3518 90.598 56.2968 90.4226 56.2968H90.0938L90.2691 55.8794L91.9134 55.6816V56.8132V59.6585C92.2313 59.3509 92.5492 59.1422 92.8671 59.0213C93.185 58.9005 93.4591 58.8455 93.7112 58.8455C94.4566 58.8455 95.0157 59.0653 95.3993 59.5157C95.783 59.9661 95.9803 60.5813 95.9803 61.3723V63.6573V64.6461H95.9693Z" fill="#78777A"/>
<path d="M101.393 59.977C101.065 59.6694 100.681 59.5046 100.253 59.5046C99.793 59.5046 99.3984 59.6694 99.0696 60.0209C98.7407 60.3615 98.5434 60.7899 98.4447 61.3173H101.624C101.711 61.3173 101.777 61.3063 101.821 61.2733C101.865 61.2404 101.887 61.1854 101.887 61.1085C101.887 60.6691 101.722 60.2956 101.393 59.977ZM98.4338 62.0972C98.4995 62.6026 98.7078 63.031 99.0696 63.4046C99.4313 63.7671 99.8698 63.9538 100.385 63.9538C100.725 63.9538 101.054 63.8879 101.383 63.7561C101.7 63.6353 101.985 63.4705 102.205 63.2727L102.632 64.0747C102.358 64.2724 102.018 64.4372 101.624 64.5581C101.229 64.6789 100.769 64.7448 100.253 64.7448C99.4642 64.7448 98.7846 64.4592 98.1926 63.8989C97.6007 63.3386 97.3047 62.5916 97.3047 61.6798C97.3047 60.8668 97.5897 60.1747 98.1926 59.5925C98.7736 59.0102 99.4751 58.7246 100.286 58.7246C101.01 58.7246 101.646 58.9663 102.194 59.4607C102.731 59.955 103.005 60.6801 103.005 61.6468C103.005 61.7896 102.972 61.8995 102.884 61.9654C102.808 62.0423 102.698 62.0643 102.566 62.0643H98.4338V62.0972Z" fill="#78777A"/>
<path d="M109.876 60.4165V63.899H112.233C112.781 63.899 113.23 63.7342 113.581 63.4047C113.921 63.0751 114.096 62.6466 114.096 62.1193C114.096 61.559 113.888 61.1306 113.471 60.834C113.055 60.5484 112.638 60.4055 112.222 60.4055H109.876V60.4165ZM110.095 56.5166C110.04 56.5166 109.996 56.5385 109.942 56.5715C109.898 56.6154 109.876 56.6594 109.876 56.7143V59.6475H111.684C112.156 59.6475 112.572 59.5047 112.934 59.2081C113.296 58.9225 113.482 58.527 113.482 58.0216C113.482 57.4504 113.274 57.0549 112.857 56.8352C112.441 56.6264 112.013 56.5166 111.575 56.5166H110.095V56.5166ZM108.889 63.4706V57.4174C108.889 57.0988 108.845 56.8352 108.758 56.6484C108.67 56.4506 108.451 56.3188 108.122 56.2419L107.793 56.165L107.979 55.7695H111.805C112.529 55.7695 113.164 55.9673 113.723 56.3628C114.282 56.7473 114.567 57.3075 114.567 58.0326C114.567 58.472 114.458 58.8346 114.25 59.1641C114.041 59.4827 113.734 59.7574 113.362 59.9771C113.789 60.087 114.217 60.3396 114.622 60.7131C115.028 61.0867 115.225 61.581 115.225 62.1852C115.225 62.7565 115.006 63.3058 114.567 63.8441C114.14 64.3824 113.395 64.657 112.342 64.657H108.9L108.889 63.4706Z" fill="#78777A"/>
<path d="M120.218 59.977C119.878 59.6694 119.505 59.5046 119.078 59.5046C118.617 59.5046 118.223 59.6694 117.905 60.0209C117.576 60.3615 117.379 60.7899 117.28 61.3173H120.459C120.547 61.3173 120.612 61.3063 120.656 61.2733C120.7 61.2404 120.722 61.1854 120.722 61.1085C120.722 60.6691 120.558 60.2956 120.218 59.977ZM117.269 62.0972C117.335 62.6026 117.543 63.031 117.905 63.4046C118.266 63.7671 118.694 63.9538 119.22 63.9538C119.56 63.9538 119.889 63.8879 120.218 63.7561C120.536 63.6353 120.81 63.4705 121.04 63.2727L121.467 64.0747C121.193 64.2724 120.853 64.4372 120.459 64.5581C120.064 64.6789 119.604 64.7448 119.078 64.7448C118.299 64.7448 117.609 64.4592 117.017 63.8989C116.425 63.3386 116.129 62.5916 116.129 61.6798C116.129 60.8668 116.425 60.1747 117.006 59.5925C117.598 59.0102 118.299 58.7246 119.1 58.7246C119.823 58.7246 120.459 58.9663 121.007 59.4607C121.555 59.955 121.818 60.6801 121.818 61.6468C121.818 61.7896 121.774 61.8995 121.698 61.9654C121.621 62.0423 121.511 62.0643 121.38 62.0643H117.269V62.0972Z" fill="#78777A"/>
<path d="M127.414 61.0316C127.338 60.6471 127.129 60.3066 126.757 60.0319C126.406 59.7573 126.033 59.6145 125.66 59.6145C125.233 59.6145 124.805 59.8122 124.4 60.1857C123.994 60.5702 123.797 61.1085 123.797 61.8006C123.797 62.4158 123.983 62.9212 124.356 63.3167C124.729 63.7232 125.167 63.9319 125.649 63.9319C125.978 63.9319 126.307 63.833 126.647 63.6463C126.976 63.4595 127.239 63.2068 127.425 62.8772V61.0316H127.414ZM128.401 64.646H127.414V64.0527C127.118 64.3274 126.79 64.5141 126.439 64.624C126.077 64.7338 125.737 64.7668 125.43 64.7448C124.652 64.6789 124.005 64.3823 123.49 63.844C122.975 63.3167 122.723 62.6356 122.723 61.8116C122.723 60.9657 122.997 60.2516 123.556 59.6804C124.115 59.1091 124.762 58.8125 125.518 58.8125C125.748 58.8125 126.033 58.8564 126.406 58.9553C126.779 59.0542 127.085 59.2409 127.338 59.5266L127.403 58.8894H128.401V64.646ZM128.401 59.944V63.7122Z" fill="#78777A"/>
<path d="M131.192 59.9108L131.203 62.2398C131.203 62.6793 131.291 63.0528 131.466 63.3604C131.642 63.668 131.993 63.8328 132.53 63.8767C132.891 63.8987 133.242 63.7778 133.593 63.5142C133.933 63.2615 134.174 62.9539 134.316 62.6243V59.9548C134.316 59.768 134.284 59.6252 134.207 59.5153C134.141 59.4055 134.02 59.3506 133.856 59.3506H133.593L133.768 58.9331L135.281 58.7354V59.8669V63.8547V64.6347H134.305V63.9206C133.944 64.2392 133.615 64.459 133.319 64.5578C133.023 64.6567 132.76 64.7116 132.53 64.7116C131.806 64.7116 131.236 64.5139 130.831 64.1294C130.425 63.7449 130.228 63.1736 130.228 62.4156V59.9987C130.228 59.801 130.184 59.6472 130.107 59.5483C130.03 59.4384 129.899 59.3945 129.723 59.3945H129.395L129.57 58.977L131.203 58.7793" fill="#78777A"/>
<path d="M138.159 58.1755L138.17 58.8896H139.628V59.6696H138.17V62.9104C138.17 63.2289 138.214 63.4816 138.313 63.6354C138.411 63.7892 138.543 63.8881 138.707 63.932C138.828 63.965 138.981 63.976 139.146 63.954C139.31 63.932 139.475 63.8771 139.628 63.8002L139.727 64.5472C139.573 64.6022 139.409 64.6571 139.211 64.6901C139.014 64.723 138.806 64.734 138.587 64.723C138.225 64.712 137.896 64.5582 137.611 64.2726C137.326 63.998 137.184 63.6025 137.184 63.0971V59.6696H136.164V58.8896H137.184V58.2634C137.184 58.0656 137.151 57.9118 137.074 57.813C136.997 57.7141 136.866 57.6592 136.679 57.6592H136.361L136.526 57.2417L138.17 57.0439" fill="#78777A"/>
<path d="M142.085 59.8785V63.6466V59.8785ZM142.085 64.6243H141.109V63.6466L141.098 59.9773C141.098 59.7686 141.054 59.6258 140.977 59.5159C140.89 59.4171 140.769 59.3621 140.594 59.3621H140.254L140.429 58.9337L142.085 58.7359V63.6686V64.6243ZM142.041 57.2199C141.887 57.3737 141.701 57.4506 141.493 57.4506C141.273 57.4506 141.098 57.3737 140.934 57.2199C140.769 57.0661 140.692 56.8793 140.692 56.6706C140.692 56.4619 140.769 56.2751 140.934 56.1213C141.098 55.9675 141.273 55.8906 141.493 55.8906C141.701 55.8906 141.887 55.9785 142.041 56.1213C142.205 56.2751 142.282 56.4619 142.282 56.6706C142.282 56.8793 142.205 57.0661 142.041 57.2199Z" fill="#78777A"/>
<path d="M144.959 64.6463H143.984V63.8663V59.6587H142.953V58.8787H143.984V57.901C143.984 57.0771 144.192 56.4838 144.619 56.1213C145.036 55.7588 145.496 55.583 145.99 55.583C146.209 55.583 146.406 55.605 146.582 55.6489C146.768 55.6929 146.91 55.7368 147.031 55.7808L146.669 56.5278C146.571 56.4619 146.472 56.4179 146.362 56.374C146.253 56.33 146.143 56.3081 146.022 56.3081C145.759 56.3081 145.518 56.4069 145.299 56.6157C145.069 56.8244 144.959 57.121 144.959 57.5275V58.9007H146.494V59.6807H144.959V63.8883V64.6463Z" fill="#78777A"/>
<path d="M148.815 59.9108V62.2398C148.815 62.6793 148.892 63.0528 149.078 63.3604C149.253 63.668 149.604 63.8328 150.13 63.8767C150.492 63.8987 150.843 63.7778 151.194 63.5142C151.534 63.2615 151.775 62.9539 151.917 62.6243V59.9548C151.917 59.768 151.884 59.6252 151.808 59.5153C151.742 59.4055 151.621 59.3506 151.468 59.3506H151.194L151.369 58.9331L152.882 58.7354V59.8669V63.8547V64.6347H151.906V63.9206C151.545 64.2392 151.216 64.459 150.92 64.5578C150.624 64.6567 150.361 64.7116 150.13 64.7116C149.407 64.7116 148.837 64.5139 148.431 64.1294C148.026 63.7449 147.828 63.1736 147.828 62.4156V59.9987C147.828 59.801 147.785 59.6472 147.708 59.5483C147.631 59.4384 147.5 59.3945 147.324 59.3945H146.984L147.16 58.977L148.793 58.7793" fill="#78777A"/>
<path d="M155.7 56.8132V63.6463V64.6351H154.724V63.6463V56.912C154.724 56.7143 154.681 56.5605 154.615 56.4506C154.538 56.3518 154.407 56.2968 154.22 56.2968H153.902L154.067 55.8794L155.711 55.6816" fill="#78777A"/>
<path d="M199.418 61.0316C199.352 60.6471 199.133 60.3066 198.772 60.0319C198.41 59.7573 198.037 59.6145 197.664 59.6145C197.226 59.6145 196.809 59.8122 196.404 60.1857C195.998 60.5702 195.801 61.1085 195.801 61.8006C195.801 62.4158 195.987 62.9212 196.36 63.3167C196.733 63.7232 197.16 63.9319 197.653 63.9319C197.982 63.9319 198.311 63.833 198.651 63.6463C198.98 63.4595 199.243 63.2068 199.429 62.8772V61.0316H199.418ZM200.405 64.646H199.418V64.0527C199.133 64.3274 198.804 64.5141 198.443 64.624C198.081 64.7338 197.741 64.7668 197.434 64.7448C196.645 64.6789 195.998 64.3823 195.494 63.844C194.979 63.3167 194.727 62.6356 194.727 61.8116C194.727 60.9657 195.001 60.2516 195.56 59.6804C196.119 59.1091 196.765 58.8125 197.522 58.8125C197.741 58.8125 198.037 58.8564 198.41 58.9553C198.782 59.0542 199.089 59.2409 199.342 59.5266L199.407 58.8894H200.405V64.646ZM200.405 59.944V63.7122Z" fill="#78777A"/>
<path d="M175.707 59.9108L175.718 62.2398C175.718 62.6793 175.806 63.0528 175.981 63.3604C176.157 63.668 176.507 63.8328 177.045 63.8767C177.406 63.8987 177.757 63.7778 178.097 63.5142C178.437 63.2615 178.689 62.9539 178.831 62.6243V59.9548C178.831 59.768 178.798 59.6252 178.722 59.5153C178.645 59.4055 178.535 59.3506 178.371 59.3506H178.097L178.272 58.9331L179.796 58.7354V59.8669V63.8547V64.6347H178.82V63.9206C178.459 64.2392 178.13 64.459 177.834 64.5578C177.538 64.6567 177.275 64.7116 177.045 64.7116C176.321 64.7116 175.751 64.5139 175.345 64.1294C174.94 63.7449 174.732 63.1736 174.732 62.4156V59.9987C174.732 59.801 174.688 59.6472 174.611 59.5483C174.534 59.4384 174.403 59.3945 174.227 59.3945H173.898L174.074 58.977L175.707 58.7793" fill="#78777A"/>
<path d="M203.264 58.1755V58.8896H204.722V59.6696H203.264V62.9104C203.264 63.2289 203.308 63.4816 203.406 63.6354C203.505 63.7892 203.637 63.8881 203.79 63.932C203.922 63.965 204.064 63.976 204.239 63.954C204.404 63.932 204.568 63.8771 204.722 63.8002L204.831 64.5472C204.678 64.6022 204.503 64.6571 204.316 64.6901C204.119 64.723 203.911 64.734 203.691 64.723C203.33 64.712 203.001 64.5582 202.716 64.2726C202.431 63.998 202.288 63.6025 202.288 63.0971V59.6696H201.258V58.8896H202.288V58.2634C202.288 58.0656 202.244 57.9118 202.179 57.813C202.102 57.7141 201.97 57.6592 201.784 57.6592H201.466L201.631 57.2417L203.275 57.0439" fill="#78777A"/>
<path d="M207.199 59.8785V63.6466V59.8785ZM207.199 64.6243H206.212V63.6466V59.9773C206.212 59.7686 206.168 59.6258 206.091 59.5159C206.015 59.4171 205.883 59.3621 205.708 59.3621H205.379L205.554 58.9337L207.21 58.7359V63.6686V64.6243H207.199ZM207.166 57.2199C207.012 57.3737 206.826 57.4506 206.618 57.4506C206.398 57.4506 206.212 57.3737 206.059 57.2199C205.894 57.0661 205.817 56.8793 205.817 56.6706C205.817 56.4619 205.894 56.2751 206.059 56.1213C206.223 55.9675 206.398 55.8906 206.618 55.8906C206.826 55.8906 207.012 55.9785 207.166 56.1213C207.319 56.2751 207.396 56.4619 207.396 56.6706C207.396 56.8793 207.319 57.0661 207.166 57.2199Z" fill="#78777A"/>
<path d="M163.098 64.6461H162.1L162.111 63.4706V57.4174C162.111 57.0988 162.067 56.8352 161.98 56.6484C161.892 56.4506 161.684 56.3188 161.344 56.2419L161.004 56.165L161.19 55.7695H167.351L167.439 57.2746H167.044C166.934 57.0219 166.803 56.8352 166.66 56.7033C166.518 56.5825 166.299 56.5166 166.024 56.5166H163.328C163.273 56.5166 163.218 56.5385 163.174 56.5715C163.131 56.6154 163.109 56.6594 163.109 56.7143V59.5047H165.882C166.046 59.5047 166.211 59.4937 166.386 59.4827C166.562 59.4717 166.726 59.4498 166.88 59.4278V60.3836C166.737 60.3616 166.573 60.3506 166.397 60.3286C166.222 60.3177 166.046 60.3067 165.882 60.3067H163.109L163.12 63.4816V64.6461H163.098Z" fill="#78777A"/>
<path d="M171.761 60.163C171.41 59.7346 170.972 59.5258 170.446 59.5258C169.898 59.5258 169.459 59.7346 169.119 60.163C168.779 60.5915 168.604 61.1188 168.604 61.756C168.604 62.3821 168.779 62.9095 169.119 63.3269C169.459 63.7554 169.898 63.9641 170.446 63.9641C170.994 63.9641 171.432 63.7444 171.772 63.3269C172.112 62.9095 172.276 62.3821 172.276 61.756C172.287 61.1188 172.112 60.5915 171.761 60.163ZM172.528 63.8872C171.958 64.4585 171.268 64.7331 170.446 64.7331C169.634 64.7331 168.944 64.4475 168.374 63.8872C167.804 63.3269 167.508 62.6238 167.508 61.7669C167.508 60.8991 167.793 60.185 168.374 59.6137C168.944 59.0535 169.634 58.7568 170.446 58.7568C171.268 58.7568 171.958 59.0425 172.528 59.6137C173.098 60.185 173.383 60.8991 173.383 61.7669C173.383 62.6238 173.098 63.3269 172.528 63.8872Z" fill="#78777A"/>
<path d="M186.674 64.6355H185.709V63.6467V61.4056C185.709 60.9662 185.633 60.5707 185.468 60.2302C185.304 59.8896 184.964 59.6918 184.438 59.6589C184.054 59.6259 183.659 59.7797 183.243 60.1203C182.837 60.4609 182.629 60.8783 182.629 61.3837L182.64 63.6577V64.6464H181.653V63.6577L181.664 59.9885C181.664 59.7797 181.631 59.6259 181.555 59.5271C181.478 59.4282 181.346 59.3733 181.171 59.3733H180.82L180.996 58.9448L182.783 58.7471C182.761 58.824 182.75 58.9448 182.717 59.0986C182.695 59.2524 182.662 59.4392 182.607 59.6699C182.958 59.3403 183.287 59.1206 183.605 59.0107C183.923 58.9009 184.197 58.835 184.449 58.835C185.183 58.835 185.742 59.0547 186.137 59.5051C186.521 59.9555 186.707 60.5707 186.707 61.3617L186.696 63.6467V64.6355H186.674Z" fill="#78777A"/>
<path d="M220.68 64.6355H219.705V63.6467V61.4056C219.705 60.9662 219.628 60.5707 219.464 60.2302C219.299 59.8896 218.959 59.6918 218.433 59.6589C218.049 59.6259 217.644 59.7797 217.238 60.1203C216.822 60.4609 216.613 60.8783 216.613 61.3837L216.624 63.6577V64.6464H215.638V63.6577L215.649 59.9885C215.649 59.7797 215.616 59.6259 215.539 59.5271C215.462 59.4282 215.342 59.3733 215.155 59.3733H214.805L214.98 58.9448L216.767 58.7471C216.745 58.824 216.734 58.9448 216.701 59.0986C216.679 59.2524 216.635 59.4392 216.591 59.6699C216.942 59.3403 217.271 59.1206 217.589 59.0107C217.907 58.9009 218.192 58.835 218.433 58.835C219.168 58.835 219.727 59.0547 220.11 59.5051C220.494 59.9555 220.68 60.5707 220.68 61.3617V63.6467V64.6355V64.6355Z" fill="#78777A"/>
<path d="M192.535 61.1853C192.447 60.7239 192.228 60.3504 191.877 60.0537C191.526 59.7571 191.164 59.6143 190.781 59.6143C190.298 59.6143 189.86 59.8011 189.476 60.1856C189.093 60.5701 188.906 61.1084 188.906 61.8005C188.906 62.4487 189.082 62.965 189.411 63.3495C189.75 63.734 190.2 63.9317 190.77 63.9317C191.121 63.9317 191.46 63.8438 191.767 63.6571C192.074 63.4703 192.337 63.2067 192.535 62.8551V61.1853ZM193.488 56.8129V63.701V64.6458H192.535V64.0306C192.272 64.2943 191.954 64.481 191.559 64.5909C191.164 64.7007 190.836 64.7447 190.551 64.7227C189.772 64.6678 189.115 64.3712 188.599 63.8438C188.084 63.3165 187.832 62.6354 187.832 61.8115C187.832 60.9985 188.106 60.2954 188.665 59.7022C189.224 59.109 189.882 58.8124 190.638 58.8124C190.858 58.8124 191.164 58.8673 191.548 58.9881C191.932 59.109 192.261 59.2847 192.535 59.5484V56.9228C192.535 56.725 192.502 56.5712 192.425 56.4614C192.348 56.3625 192.217 56.3076 192.03 56.3076H191.713L191.877 55.8901L193.499 55.6924" fill="#78777A"/>
<path d="M212.637 60.163C212.286 59.7346 211.848 59.5258 211.321 59.5258C210.773 59.5258 210.335 59.7346 209.995 60.163C209.655 60.5915 209.48 61.1188 209.48 61.756C209.48 62.3821 209.655 62.9095 209.995 63.3269C210.335 63.7554 210.784 63.9641 211.321 63.9641C211.858 63.9641 212.308 63.7444 212.648 63.3269C212.988 62.9095 213.163 62.3821 213.163 61.756C213.163 61.1188 212.988 60.5915 212.637 60.163ZM213.404 63.8872C212.834 64.4585 212.143 64.7331 211.332 64.7331C210.521 64.7331 209.831 64.4475 209.261 63.8872C208.68 63.3269 208.395 62.6238 208.395 61.7669C208.395 60.8991 208.68 60.185 209.261 59.6137C209.831 59.0535 210.521 58.7568 211.332 58.7568C212.143 58.7568 212.845 59.0425 213.404 59.6137C213.974 60.185 214.259 60.8991 214.259 61.7669C214.259 62.6238 213.974 63.3269 213.404 63.8872Z" fill="#78777A"/>
</svg>
