<svg width="90" height="160" viewBox="0 0 90 160" fill="none" xmlns="http://www.w3.org/2000/svg">
<g filter="url(#filter0_d)">
<path d="M54 147.5C51.5769 147.28 44 148 39.9988 148.5L40.9988 147.001C41.8322 146.667 43.6026 146.132 45.5 145.5C47.0012 145 53.4988 144 53.4988 141C53.4988 140.2 47.5 140.5 44.5 140.5C42.3333 139.333 37.9988 137.3 37.9988 136.5C37.9988 135.7 35.1667 133.167 34 132C34.3333 131.5 34.6988 130.2 35.4988 129C36.2988 127.8 36.1655 125.834 35.4988 125.5C35.8322 125 36.7988 123.601 37.9988 122C39.1988 120.4 38.4988 118.333 37.9988 117.5C39.1655 115.167 41.6988 108.8 42.4988 102C43.2988 95.2002 41 87 41 83C41 80.5 42.4988 77.4 42.4988 75C42.4988 72.6 42.4988 62 42 57.5C43 55.5 43.7988 51.6002 44.9988 48.0002C46.1988 44.4002 45.1655 38.8335 44.4988 36.5002H44.9988C45.3322 35.0002 45.6988 31.8003 44.4988 31.0006C43.2988 30.2009 40.9988 32.3338 40.4988 33.0002L38.9988 30.5002C38.9988 30.167 40.2988 28.5006 41.4988 28.5006C42.9988 28.5006 43.9988 27.5006 47.4988 31.0006C50.2988 33.8006 50.6655 36.1673 50.4988 37.0006C52.8322 37.5006 58.0988 38.6006 60.4988 39.0006C63.4988 39.5006 69.9988 40.5006 71.9988 42.5006C73.9988 44.5006 72.709 48.7099 73.5 49.5C75.0012 50.9994 80.9988 65 83.4988 76C85.4988 84.8 86 89.5 85.5 91.5L83.4988 99.0006C83.4988 99.8006 82.4988 100.001 81.9988 100.001C81.9988 100.667 81.7988 102.501 80.9988 104.501C79.9988 107.001 81.4988 114.501 81.9988 116.001C82.4988 117.501 84.4988 116.501 82.9988 124.001C81.4988 131.501 79.4988 132.501 78.4988 134.001C77.4988 135.501 74.4988 144.501 72.9988 147.001C71.4988 149.501 68.9988 152.001 67.4988 152.001C63 152.001 59.5 148 54 147.5Z" fill="#FFC02B"/>
<path d="M22.9988 0.500197C31.3988 2.1002 35.4988 11.8333 36.4988 16C35.0551 11.9998 31 7 29 5C27.5 3.5 21.5 -1 15 3C8.5 7 10 16 10 17C10 18 8 21.5 8 23.5C8 25.5 7 31.0006 7 33.5C7 35.4995 5.99922 40.3335 5.49883 42.5006C4.6655 35.0005 3.49883 18.8002 5.49883 14.0002C7.99883 8.0002 12.4988 -1.4998 22.9988 0.500197Z" fill="#FFC02B"/>
</g>
<defs>
<filter id="filter0_d" x="0.394531" y="0.228516" width="89.2856" height="159.772" filterUnits="userSpaceOnUse" color-interpolation-filters="sRGB">
<feFlood flood-opacity="0" result="BackgroundImageFix"/>
<feColorMatrix in="SourceAlpha" type="matrix" values="0 0 0 0 0 0 0 0 0 0 0 0 0 0 0 0 0 0 127 0"/>
<feOffset dy="4"/>
<feGaussianBlur stdDeviation="2"/>
<feColorMatrix type="matrix" values="0 0 0 0 0 0 0 0 0 0 0 0 0 0 0 0 0 0 0.25 0"/>
<feBlend mode="normal" in2="BackgroundImageFix" result="effect1_dropShadow"/>
<feBlend mode="normal" in="SourceGraphic" in2="effect1_dropShadow" result="shape"/>
</filter>
</defs>
</svg>
