<svg width="20" height="16" viewBox="0 0 20 16" fill="none" xmlns="http://www.w3.org/2000/svg">
<path d="M17.6195 8.33301V10.4624C17.6195 11.3851 14.6347 12.5918 10.9528 12.5918C7.27089 12.5918 4.28613 11.3851 4.28613 10.4624V8.6879" stroke="white" stroke-linecap="round" stroke-linejoin="round"/>
<path d="M4.56543 8.87175C5.38924 9.6866 7.93686 10.451 10.9521 10.451C14.634 10.451 17.6188 9.31112 17.6188 8.3316C17.6188 7.78151 16.6788 7.1789 15.2035 6.75586" stroke="white" stroke-linecap="round" stroke-linejoin="round"/>
<path d="M14.762 4.7832V6.91258C14.762 7.83531 11.7773 9.04196 8.09538 9.04196C4.41347 9.04196 1.42871 7.83531 1.42871 6.91258V4.7832" stroke="white" stroke-linecap="round" stroke-linejoin="round"/>
<path fill-rule="evenodd" clip-rule="evenodd" d="M8.09538 6.9017C11.7773 6.9017 14.762 5.76177 14.762 4.78226C14.762 3.80203 11.7773 2.6543 8.09538 2.6543C4.41347 2.6543 1.42871 3.80203 1.42871 4.78226C1.42871 5.76177 4.41347 6.9017 8.09538 6.9017Z" stroke="white" stroke-linecap="round" stroke-linejoin="round"/>
<line x1="8.4248" y1="6.91992" x2="8.4248" y2="8.8886" stroke="white"/>
<line x1="11.4434" y1="10.5762" x2="11.4434" y2="12.5448" stroke="white"/>
<line x1="5.7832" y1="6.63867" x2="5.7832" y2="8.60734" stroke="white"/>
<line x1="8.80176" y1="10.2949" x2="8.80176" y2="12.2636" stroke="white"/>
<line x1="11.0664" y1="6.63867" x2="11.0664" y2="8.60734" stroke="white"/>
<line x1="13.707" y1="10.2949" x2="13.707" y2="12.2636" stroke="white"/>
<line x1="12.9531" y1="6.35742" x2="12.9531" y2="8.32609" stroke="white"/>
<line x1="15.5947" y1="10.0127" x2="15.5947" y2="11.9814" stroke="white"/>
<line x1="14.085" y1="5.79492" x2="14.085" y2="7.7636" stroke="white"/>
<line x1="16.7266" y1="9.45117" x2="16.7266" y2="11.4198" stroke="white"/>
<line x1="3.89648" y1="6.35742" x2="3.89648" y2="8.32609" stroke="white"/>
<line x1="6.91504" y1="10.0127" x2="6.91504" y2="11.9814" stroke="white"/>
<line x1="2.38672" y1="5.79492" x2="2.38672" y2="7.7636" stroke="white"/>
<line x1="5.40527" y1="9.45117" x2="5.40527" y2="11.4198" stroke="white"/>
</svg>
