<svg width="29" height="32" viewBox="0 0 29 32" fill="none" xmlns="http://www.w3.org/2000/svg">
<path d="M5.59961 25.0001V10.793C5.59961 9.6884 6.49504 8.79297 7.59961 8.79297H18.7722C19.8768 8.79297 20.7722 9.6884 20.7722 10.793V25.0001C20.7722 26.1047 19.8768 27.0001 18.7722 27.0001H7.59961C6.49504 27.0001 5.59961 26.1047 5.59961 25.0001Z" fill="white"/>
<path fill-rule="evenodd" clip-rule="evenodd" d="M7.6 9.39336C6.8268 9.39336 6.2 10.0202 6.2 10.7934V25.0005C6.2 25.7737 6.8268 26.4005 7.6 26.4005H18.7726C19.5458 26.4005 20.1726 25.7737 20.1726 25.0005V10.7934C20.1726 10.0202 19.5458 9.39336 18.7726 9.39336H7.6ZM5 10.7934C5 9.35742 6.16406 8.19336 7.6 8.19336H18.7726C20.2085 8.19336 21.3726 9.35742 21.3726 10.7934V25.0005C21.3726 26.4364 20.2085 27.6005 18.7726 27.6005H7.6C6.16406 27.6005 5 26.4364 5 25.0005V10.7934Z" fill="#333333"/>
<path d="M23.9649 9.05466L20.4101 5.57146C20.0362 5.20516 19.5337 5 19.0103 5H11.3926C10.288 5 9.39258 5.89543 9.39258 7V21.2071C9.39258 22.3117 10.288 23.2071 11.3926 23.2071H22.5652C23.6697 23.2071 24.5652 22.3117 24.5652 21.2071V10.4832C24.5652 9.9457 24.3488 9.43083 23.9649 9.05466Z" fill="white"/>
<path fill-rule="evenodd" clip-rule="evenodd" d="M11.393 5.60039C10.6198 5.60039 9.99297 6.22719 9.99297 7.00039V21.2075C9.99297 21.9807 10.6198 22.6075 11.393 22.6075H22.5656C23.3388 22.6075 23.9656 21.9807 23.9656 21.2075V10.4836C23.9656 10.1073 23.8141 9.74693 23.5454 9.48361L19.9905 6.00041C19.7289 5.744 19.3771 5.60039 19.0107 5.60039H11.393ZM8.79297 7.00039C8.79297 5.56445 9.95703 4.40039 11.393 4.40039H19.0107C19.6911 4.40039 20.3444 4.6671 20.8304 5.14329L24.3852 8.62649C24.8843 9.11552 25.1656 9.78485 25.1656 10.4836V21.2075C25.1656 22.6435 24.0015 23.8075 22.5656 23.8075H11.393C9.95703 23.8075 8.79297 22.6435 8.79297 21.2075V7.00039Z" fill="#333333"/>
<path fill-rule="evenodd" clip-rule="evenodd" d="M13.3477 14.8637C13.3477 14.5323 13.6163 14.2637 13.9477 14.2637H20.0167C20.3481 14.2637 20.6167 14.5323 20.6167 14.8637C20.6167 15.195 20.3481 15.4637 20.0167 15.4637H13.9477C13.6163 15.4637 13.3477 15.195 13.3477 14.8637ZM13.3477 18.6568C13.3477 18.3255 13.6163 18.0568 13.9477 18.0568H20.0167C20.3481 18.0568 20.6167 18.3255 20.6167 18.6568C20.6167 18.9882 20.3481 19.2568 20.0167 19.2568H13.9477C13.6163 19.2568 13.3477 18.9882 13.3477 18.6568Z" fill="#333333"/>
<path fill-rule="evenodd" clip-rule="evenodd" d="M18.6543 9.31041V5H19.8543V9.31041C19.8543 9.53132 20.0334 9.71041 20.2543 9.71041H24.5647V10.9104H20.2543C19.3706 10.9104 18.6543 10.1941 18.6543 9.31041Z" fill="#333333"/>
</svg>
