<svg width="12" height="12" viewBox="0 0 12 12" fill="none" xmlns="http://www.w3.org/2000/svg">
<path d="M5.82322 11.1768C5.92085 11.2744 6.07915 11.2744 6.17678 11.1768L7.76777 9.58579C7.8654 9.48816 7.8654 9.32986 7.76777 9.23223C7.67014 9.1346 7.51184 9.1346 7.41421 9.23223L6 10.6464L4.58579 9.23223C4.48816 9.1346 4.32986 9.1346 4.23223 9.23223C4.1346 9.32986 4.1346 9.48816 4.23223 9.58579L5.82322 11.1768ZM5.75 6V11H6.25V6H5.75Z" fill="white"/>
<path d="M6.17678 0.823223C6.07915 0.725592 5.92085 0.725592 5.82322 0.823223L4.23223 2.41421C4.1346 2.51184 4.1346 2.67014 4.23223 2.76777C4.32986 2.8654 4.48816 2.8654 4.58579 2.76777L6 1.35355L7.41421 2.76777C7.51184 2.8654 7.67014 2.8654 7.76777 2.76777C7.8654 2.67014 7.8654 2.51184 7.76777 2.41421L6.17678 0.823223ZM6.25 6L6.25 1L5.75 1L5.75 6L6.25 6Z" fill="white"/>
<path d="M0.823223 5.82322C0.725592 5.92085 0.725592 6.07915 0.823223 6.17678L2.41421 7.76777C2.51184 7.8654 2.67014 7.8654 2.76777 7.76777C2.8654 7.67014 2.8654 7.51184 2.76777 7.41421L1.35355 6L2.76777 4.58579C2.8654 4.48816 2.8654 4.32986 2.76777 4.23223C2.67014 4.1346 2.51184 4.1346 2.41421 4.23223L0.823223 5.82322ZM6 5.75L1 5.75L1 6.25L6 6.25L6 5.75Z" fill="white"/>
<path d="M11.1768 6.17678C11.2744 6.07915 11.2744 5.92085 11.1768 5.82322L9.58579 4.23223C9.48816 4.1346 9.32986 4.1346 9.23223 4.23223C9.1346 4.32986 9.1346 4.48816 9.23223 4.58579L10.6464 6L9.23223 7.41421C9.1346 7.51184 9.1346 7.67014 9.23223 7.76777C9.32986 7.8654 9.48816 7.8654 9.58579 7.76777L11.1768 6.17678ZM6 6.25L11 6.25V5.75L6 5.75V6.25Z" fill="white"/>
</svg>
