<svg width="28" height="28" viewBox="0 0 28 28" fill="none" xmlns="http://www.w3.org/2000/svg">
<path fill-rule="evenodd" clip-rule="evenodd" d="M8.92453 6.40741C5.94616 6.40741 3.08022 9.70159 4.98371 14.2212C5.70647 15.9373 7.60409 18.0489 9.59669 19.7647C10.5805 20.6118 11.5585 21.3374 12.3799 21.8468C12.7913 22.1019 13.1524 22.2959 13.4479 22.4239C13.7614 22.5597 13.9369 22.5926 13.9998 22.5926C14.0622 22.5926 14.238 22.5596 14.5529 22.4228C14.8495 22.294 15.2123 22.0988 15.6254 21.8424C16.4503 21.3303 17.4325 20.6015 18.4196 19.7522C20.4198 18.0312 22.3178 15.9208 23.0251 14.2237C24.9129 9.6935 22.0444 6.40741 19.1512 6.40741C17.6312 6.40741 16.5639 7.0103 15.83 7.62348C15.4593 7.93315 15.1739 8.24547 14.9522 8.49583C14.9328 8.51781 14.913 8.54024 14.8932 8.56276C14.8079 8.65946 14.721 8.75811 14.6488 8.83208C14.604 8.87791 14.5418 8.93862 14.4703 8.99171L14.4693 8.99243C14.4236 9.02632 14.2485 9.15625 13.9998 9.15625C13.7489 9.15625 13.5732 9.0242 13.5272 8.98963L13.5266 8.98916C13.4547 8.93518 13.3927 8.87361 13.3485 8.8275C13.2767 8.75257 13.1906 8.6527 13.1066 8.55535C13.0876 8.53342 13.0688 8.51162 13.0503 8.49026C12.8333 8.23983 12.5546 7.92822 12.1918 7.61935C11.4741 7.00826 10.4274 6.40741 8.92453 6.40741ZM3.72242 14.7788C1.45816 9.40258 4.8826 5 8.92453 5C10.8265 5 12.1732 5.77357 13.0698 6.5369C13.4691 6.87686 13.7791 7.21462 14.0045 7.47189C14.2351 7.214 14.5528 6.87447 14.9618 6.53277C15.8729 5.77153 17.237 5 19.1512 5C23.1266 5 26.5244 9.41067 24.2884 14.7763C23.4477 16.7937 21.3353 19.0814 19.3031 20.83C18.2739 21.7154 17.2344 22.4892 16.3371 23.0461C15.8892 23.3241 15.4657 23.555 15.0891 23.7186C14.7309 23.8742 14.3465 24 13.9998 24C13.6538 24 13.2704 23.8751 12.9128 23.7202C12.5372 23.5574 12.1151 23.3277 11.6686 23.0509C10.7745 22.4964 9.73895 21.7256 8.71286 20.8421C6.68563 19.0965 4.57786 16.8099 3.72242 14.7788Z" fill="black"/>
</svg>
