<svg width="18" height="18" viewBox="0 0 18 18" fill="none" xmlns="http://www.w3.org/2000/svg">
<rect x="2" y="2" width="14.8755" height="14.8755" rx="7.43775" fill="#FFCC16"/>
<path fill-rule="evenodd" clip-rule="evenodd" d="M0.825195 8.56294C0.825195 4.2895 4.2895 0.825195 8.56294 0.825195C12.8364 0.825195 16.3007 4.2895 16.3007 8.56294C16.3007 12.8364 12.8364 16.3007 8.56294 16.3007C4.2895 16.3007 0.825195 12.8364 0.825195 8.56294ZM8.56294 1.4252C4.62088 1.4252 1.4252 4.62088 1.4252 8.56294C1.4252 12.505 4.62088 15.7007 8.56294 15.7007C12.505 15.7007 15.7007 12.505 15.7007 8.56294C15.7007 4.62088 12.505 1.4252 8.56294 1.4252Z" fill="#333333"/>
<path d="M8.5878 12.0632C10.5519 12.0632 12.0627 10.6765 12.0627 8.70511V8.40439H8.44511V9.16456H11.1227C11.0219 10.3758 9.99791 11.278 8.62137 11.278C7.05177 11.278 5.94382 10.1419 5.94382 8.5631C5.94382 6.99265 7.05177 5.86492 8.60458 5.86492C9.7545 5.86492 10.703 6.49144 10.98 7.33514H11.9368C11.5843 6.05705 10.3001 5.06299 8.5878 5.06299C6.53137 5.06299 5.0625 6.54156 5.0625 8.5631C5.0625 10.5847 6.53137 12.0632 8.5878 12.0632Z" fill="#333333"/>
</svg>
