<svg width="143" height="28" viewBox="0 0 143 28" fill="none" xmlns="http://www.w3.org/2000/svg">
<path d="M32.5055 8.795V10.37H36.8855C36.8405 11.03 36.7355 11.63 36.6005 12.2L31.7705 12.485L32.0255 14.165L36.0305 13.775C35.2505 15.29 33.9155 16.58 31.6505 17.705L32.7005 19.235C37.8455 16.61 38.8505 13.055 38.8505 8.795H32.5055ZM44.4605 12.74H42.5255V7.46H40.5455V21.26H42.5255V14.375H44.4605V12.74ZM46.0643 8.795V10.37H50.4443C50.3993 11.03 50.2943 11.63 50.1593 12.2L45.3293 12.485L45.5843 14.165L49.5893 13.775C48.8093 15.29 47.4743 16.58 45.2093 17.705L46.2593 19.235C51.4043 16.61 52.4093 13.055 52.4093 8.795H46.0643ZM58.0193 12.74H56.0843V7.46H54.1043V21.26H56.0843V14.375H58.0193V12.74ZM61.8731 11.99C61.8731 10.58 63.1781 9.755 65.0681 9.755C66.9731 9.755 68.2781 10.58 68.2781 11.99C68.2781 13.4 66.9731 14.225 65.0681 14.225C63.1781 14.225 61.8731 13.4 61.8731 11.99ZM66.0581 18.08V15.74C68.5031 15.455 70.2281 14.045 70.2281 11.99C70.2281 9.68 68.0231 8.18 65.0681 8.18C62.1281 8.18 59.9231 9.68 59.9231 11.99C59.9231 14.045 61.6481 15.44 64.0781 15.74V18.08H58.8281V19.685H71.3381V18.08H66.0581ZM79.617 18.155V16.1H83.802V14.51H75.792V12.965H83.487V8.36H73.812V9.935H81.537V11.42H73.827V16.1H77.637V18.155H72.387V19.775H84.897V18.155H79.617ZM94.4592 8.54H92.4792V10.55C92.4792 13.235 91.3392 15.905 88.9242 16.94L90.1092 18.575C91.7592 17.795 92.8842 16.31 93.4992 14.465C94.1142 16.16 95.1792 17.525 96.7692 18.245L97.8942 16.64C95.5542 15.635 94.4592 13.115 94.4592 10.55V8.54ZM98.5692 7.46V21.32H100.549V7.46H98.5692ZM110.913 13.79C108.738 13.085 107.793 11.45 107.748 9.86H110.448V8.285H102.978V9.86H105.723C105.678 11.57 104.703 13.295 102.453 14.03L103.488 15.575C105.078 15.05 106.158 13.985 106.773 12.65C107.373 13.865 108.408 14.84 109.908 15.32L110.913 13.79ZM104.313 17.99H111.558V21.305H113.538V16.415H104.313V17.99ZM115.368 10.805H113.538V7.475H111.558V15.8H113.538V12.44H115.368V10.805ZM120.212 16.85C119.282 16.85 118.592 16.22 118.592 15.17C118.592 14.12 119.282 13.475 120.212 13.475C121.142 13.475 121.817 14.12 121.817 15.155C121.817 16.22 121.142 16.85 120.212 16.85ZM120.212 11.87C118.202 11.87 116.702 13.235 116.702 15.155C116.702 17.105 118.202 18.47 120.212 18.47C122.207 18.47 123.692 17.105 123.692 15.155C123.692 13.235 122.207 11.87 120.212 11.87ZM121.187 7.715H119.207V9.515H116.147V11.09H124.187V9.515H121.187V7.715ZM129.047 12.875H127.067V7.475H125.087V21.29H127.067V14.51H129.047V12.875ZM130.546 8.9V10.475H135.151C134.866 13.535 133.336 15.695 129.811 17.39L130.846 18.95C135.751 16.58 137.176 13.13 137.176 8.9H130.546ZM139.291 7.46V21.275H141.286V7.46H139.291Z" fill="#101010"/>
<rect width="28" height="28" fill="white"/>
<rect width="28" height="28" fill="#FFC02B"/>
<path d="M13.9999 20.9545C19.5224 20.9545 23.9999 17.3828 23.9999 12.9778C23.9999 8.57167 19.5224 5 13.9999 5C8.47736 5 3.99986 8.57167 3.99986 12.9778C3.99986 14.6976 4.68236 16.291 5.84361 17.5929L4.62486 23L9.51986 20.1117C10.9383 20.6733 12.4618 20.9599 13.9999 20.9545Z" fill="black" stroke="black" stroke-linecap="round" stroke-linejoin="round"/>
</svg>
