<svg width="32" height="32" viewBox="0 0 32 32" fill="none" xmlns="http://www.w3.org/2000/svg">
<path fill-rule="evenodd" clip-rule="evenodd" d="M18.5215 11.4998H24.2606L23.1128 9.49978L24.2606 7.49978H18.5215V11.4998ZM13.2891 15.9525L18.5217 12.9833L23.7544 15.9525C24.0674 16.1302 24.2609 16.4623 24.2609 16.8223V18.9998H28.0435C28.5958 18.9998 29.0435 19.4475 29.0435 19.9998V26.9998C29.0435 27.5521 28.5958 27.9998 28.0435 27.9998H24.2609V28C24.2609 28.5523 23.8132 29 23.2609 29H13.7826C13.2303 29 12.7826 28.5523 12.7826 28V27.9998H12.26H9C8.44772 27.9998 8 27.5521 8 26.9998V19.9998C8 19.4475 8.44771 18.9998 9 18.9998H12.26H12.7826V16.8223C12.7826 16.4623 12.976 16.1302 13.2891 15.9525Z" fill="#FFC02B"/>
<path d="M24.2606 11.4998V12.0998C24.4747 12.0998 24.6726 11.9857 24.7798 11.8004C24.8871 11.6152 24.8876 11.3868 24.781 11.2011L24.2606 11.4998ZM18.5215 11.4998H17.9215C17.9215 11.8311 18.1901 12.0998 18.5215 12.0998V11.4998ZM23.1128 9.49978L22.5924 9.20112C22.4863 9.38608 22.4863 9.61348 22.5924 9.79844L23.1128 9.49978ZM24.2606 7.49978L24.781 7.79844C24.8876 7.61276 24.8871 7.38437 24.7798 7.19911C24.6726 7.01384 24.4747 6.89978 24.2606 6.89978V7.49978ZM18.5215 7.49978V6.89978C18.1901 6.89978 17.9215 7.16841 17.9215 7.49978H18.5215ZM18.5217 12.9833L18.8179 12.4614C18.6342 12.3572 18.4093 12.3572 18.2256 12.4614L18.5217 12.9833ZM13.2891 15.9525L12.993 15.4307H12.993L13.2891 15.9525ZM23.7544 15.9525L24.0505 15.4307H24.0505L23.7544 15.9525ZM24.2609 18.9998H23.6609C23.6609 19.3311 23.9295 19.5998 24.2609 19.5998V18.9998ZM24.2609 27.9998V27.3998C23.9295 27.3998 23.6609 27.6684 23.6609 27.9998H24.2609ZM12.7826 27.9998H13.3826C13.3826 27.6684 13.114 27.3998 12.7826 27.3998V27.9998ZM12.7826 18.9998V19.5998C13.114 19.5998 13.3826 19.3311 13.3826 18.9998H12.7826ZM24.2606 10.8998H18.5215V12.0998H24.2606V10.8998ZM22.5924 9.79844L23.7402 11.7984L24.781 11.2011L23.6332 9.20112L22.5924 9.79844ZM23.7402 7.20112L22.5924 9.20112L23.6332 9.79844L24.781 7.79844L23.7402 7.20112ZM18.5215 8.09978H24.2606V6.89978H18.5215V8.09978ZM19.1215 11.4998V7.49978H17.9215V11.4998H19.1215ZM18.2256 12.4614L12.993 15.4307L13.5852 16.4744L18.8179 13.5051L18.2256 12.4614ZM24.0505 15.4307L18.8179 12.4614L18.2256 13.5051L23.4583 16.4744L24.0505 15.4307ZM24.8609 16.8223C24.8609 16.2464 24.5514 15.7149 24.0505 15.4307L23.4583 16.4744C23.5835 16.5454 23.6609 16.6783 23.6609 16.8223H24.8609ZM24.8609 18.9998V16.8223H23.6609V18.9998H24.8609ZM28.0435 18.3998H24.2609V19.5998H28.0435V18.3998ZM29.6435 19.9998C29.6435 19.1161 28.9271 18.3998 28.0435 18.3998V19.5998C28.2644 19.5998 28.4435 19.7789 28.4435 19.9998H29.6435ZM29.6435 26.9998V19.9998H28.4435V26.9998H29.6435ZM28.0435 28.5998C28.9271 28.5998 29.6435 27.8834 29.6435 26.9998H28.4435C28.4435 27.2207 28.2644 27.3998 28.0435 27.3998V28.5998ZM24.2609 28.5998H28.0435V27.3998H24.2609V28.5998ZM24.8609 28V27.9998H23.6609V28H24.8609ZM23.2609 29.6C24.1445 29.6 24.8609 28.8837 24.8609 28H23.6609C23.6609 28.2209 23.4818 28.4 23.2609 28.4V29.6ZM13.7826 29.6H23.2609V28.4H13.7826V29.6ZM12.1826 28C12.1826 28.8837 12.899 29.6 13.7826 29.6V28.4C13.5617 28.4 13.3826 28.2209 13.3826 28H12.1826ZM12.1826 27.9998V28H13.3826V27.9998H12.1826ZM12.26 28.5998H12.7826V27.3998H12.26V28.5998ZM9 28.5998H12.26V27.3998H9V28.5998ZM7.4 26.9998C7.4 27.8834 8.11634 28.5998 9 28.5998V27.3998C8.77909 27.3998 8.6 27.2207 8.6 26.9998H7.4ZM7.4 19.9998V26.9998H8.6V19.9998H7.4ZM9 18.3998C8.11634 18.3998 7.4 19.1161 7.4 19.9998H8.6C8.6 19.7789 8.77909 19.5998 9 19.5998V18.3998ZM12.26 18.3998H9V19.5998H12.26V18.3998ZM12.7826 18.3998H12.26V19.5998H12.7826V18.3998ZM12.1826 16.8223V18.9998H13.3826V16.8223H12.1826ZM12.993 15.4307C12.4921 15.7149 12.1826 16.2464 12.1826 16.8223H13.3826C13.3826 16.6783 13.46 16.5454 13.5852 16.4744L12.993 15.4307ZM17.9217 6V7.49978H19.1217V6H17.9217ZM17.9217 11.4998V12.9833H19.1217V11.4998H17.9217Z" fill="#FFC02B"/>
<path d="M16 4V10.9833M16 10.9833L10.523 13.9561C10.2007 14.131 10 14.4683 10 14.835V26C10 26.5523 10.4477 27 11 27H21C21.5523 27 22 26.5523 22 26V14.835C22 14.4683 21.7993 14.131 21.477 13.9561L16 10.9833Z" stroke="black" stroke-width="1.2"/>
<path d="M9.45366 17H6C5.44772 17 5 17.4477 5 18V25C5 25.5523 5.44772 26 6 26H9.45366M21.761 17H26C26.5523 17 27 17.4477 27 18V25C27 25.5523 26.5523 26 26 26H21.6" stroke="black" stroke-width="1.2"/>
<path d="M16 9.5H22L20.8 7.5L22 5.5H16" stroke="black" stroke-width="1.2" stroke-linejoin="round"/>
<circle cx="16" cy="17" r="2.4" stroke="#101010" stroke-width="1.2"/>
<path d="M3 8H11" stroke="#101010" stroke-width="1.2" stroke-linejoin="round"/>
<path d="M7 4L7 12" stroke="#101010" stroke-width="1.2" stroke-linejoin="round"/>
</svg>
