<svg width="22" height="22" viewBox="0 0 22 22" fill="none" xmlns="http://www.w3.org/2000/svg">
<path fill-rule="evenodd" clip-rule="evenodd" d="M6.9248 8.8307L14.4364 4.77441L15.0744 5.95588L7.56279 10.0122L6.9248 8.8307ZM14.4364 17.2233L6.9248 13.167L7.56279 11.9856L15.0744 16.0419L14.4364 17.2233Z" fill="black"/>
<path fill-rule="evenodd" clip-rule="evenodd" d="M13.7716 4.11419C13.7716 1.84199 15.6136 0 17.8858 0C20.158 0 22 1.84199 22 4.11419C22 6.38639 20.158 8.22838 17.8858 8.22838C15.6136 8.22838 13.7716 6.38639 13.7716 4.11419ZM17.8858 1.34272C16.3552 1.34272 15.1143 2.58355 15.1143 4.11419C15.1143 5.64483 16.3552 6.88566 17.8858 6.88566C19.4165 6.88566 20.6573 5.64483 20.6573 4.11419C20.6573 2.58355 19.4165 1.34272 17.8858 1.34272ZM0 11C0 8.7278 1.84199 6.88581 4.11419 6.88581C6.38639 6.88581 8.22838 8.7278 8.22838 11C8.22838 13.2722 6.38639 15.1142 4.11419 15.1142C1.84199 15.1142 0 13.2722 0 11ZM4.11419 8.22853C2.58355 8.22853 1.34272 9.46936 1.34272 11C1.34272 12.5306 2.58355 13.7715 4.11419 13.7715C5.64483 13.7715 6.88566 12.5306 6.88566 11C6.88566 9.46936 5.64483 8.22853 4.11419 8.22853ZM17.8858 15.1143C16.3552 15.1143 15.1143 16.3552 15.1143 17.8858C15.1143 19.4165 16.3552 20.6573 17.8858 20.6573C19.4165 20.6573 20.6573 19.4165 20.6573 17.8858C20.6573 16.3552 19.4165 15.1143 17.8858 15.1143ZM13.7716 17.8858C13.7716 15.6136 15.6136 13.7716 17.8858 13.7716C20.158 13.7716 22 15.6136 22 17.8858C22 20.158 20.158 22 17.8858 22C15.6136 22 13.7716 20.158 13.7716 17.8858Z" fill="black"/>
<path fill-rule="evenodd" clip-rule="evenodd" d="M13.7716 4.11419C13.7716 1.84199 15.6136 0 17.8858 0C20.158 0 22 1.84199 22 4.11419C22 6.38639 20.158 8.22838 17.8858 8.22838C15.6136 8.22838 13.7716 6.38639 13.7716 4.11419ZM17.8858 1.34272C16.3552 1.34272 15.1143 2.58355 15.1143 4.11419C15.1143 5.64483 16.3552 6.88566 17.8858 6.88566C19.4165 6.88566 20.6573 5.64483 20.6573 4.11419C20.6573 2.58355 19.4165 1.34272 17.8858 1.34272ZM0 11C0 8.7278 1.84199 6.88581 4.11419 6.88581C6.38639 6.88581 8.22838 8.7278 8.22838 11C8.22838 13.2722 6.38639 15.1142 4.11419 15.1142C1.84199 15.1142 0 13.2722 0 11ZM4.11419 8.22853C2.58355 8.22853 1.34272 9.46936 1.34272 11C1.34272 12.5306 2.58355 13.7715 4.11419 13.7715C5.64483 13.7715 6.88566 12.5306 6.88566 11C6.88566 9.46936 5.64483 8.22853 4.11419 8.22853ZM17.8858 15.1143C16.3552 15.1143 15.1143 16.3552 15.1143 17.8858C15.1143 19.4165 16.3552 20.6573 17.8858 20.6573C19.4165 20.6573 20.6573 19.4165 20.6573 17.8858C20.6573 16.3552 19.4165 15.1143 17.8858 15.1143ZM13.7716 17.8858C13.7716 15.6136 15.6136 13.7716 17.8858 13.7716C20.158 13.7716 22 15.6136 22 17.8858C22 20.158 20.158 22 17.8858 22C15.6136 22 13.7716 20.158 13.7716 17.8858Z" fill="black"/>
</svg>
